<svg id="Layer_1" enable-background="new 0 0 512.002 512.002" height="512" viewBox="0 0 512.002 512.002" width="512" xmlns="http://www.w3.org/2000/svg"><g><circle cx="224" cy="448.001" r="8"/><circle cx="408" cy="448.001" r="8"/><path d="m188 336.001h275.57c3.87 0 7.186-2.771 7.873-6.579l40.43-224c.884-4.902-2.884-9.421-7.873-9.421h-366.456l-7.163-36.607c-2.2-11.237-12.104-19.393-23.551-19.393h-10.83v-8c0-4.418-3.582-8-8-8h-64c-13.233 0-24 10.767-24 24s10.767 24 24 24h64c4.418 0 8-3.582 8-8v-8h10.83c3.814 0 7.115 2.72 7.849 6.466 15.379 78.6 36.723 187.683 51.346 262.421-17.717 8.298-30.025 26.291-30.025 47.113 0 28.443 23.138 52 52 52h4c.44 0-8 8.593-8 24 0 22.056 17.944 40 40 40 33.068 0 51.603-37.915 31.978-64h120.044c-19.649 26.116-1.059 64 31.978 64 33.068 0 51.603-37.915 31.978-64h8.022c6.402 0 12.428-2.49 16.987-7.033 15.06-15.116 4.237-40.967-16.987-40.967h-295.772c-2.381-21.431 14.444-40 35.772-40zm-108-280h-56c-4.411 0-8-3.589-8-8s3.589-8 8-8h56zm288 128v64h-96v-64zm-96-16v-56h96v56zm197.88 80h-85.88v-64h97.431zm-101.88 16v56h-96v-56zm-112-16h-88.715l-12.523-64h101.238zm-74.627 72-10.957-56h85.584v56c-10.032 0-63.065 0-74.627 0zm275.512 0h-72.885v-56h82.992zm27.434-152h-100.319v-56h110.427zm-228.319-56v56h-104.368l-10.958-56zm-8 336c0 13.233-10.767 24-24 24s-24-10.767-24-24 10.767-24 24-24 24 10.767 24 24zm184 0c0 13.233-10.767 24-24 24s-24-10.767-24-24 10.767-24 24-24 24 10.767 24 24zm16-56c7.147 0 10.64 8.668 5.674 13.653-1.519 1.513-3.534 2.347-5.674 2.347-15.281 0-244.846 0-260 0-12.455 0-23.451-6.359-29.917-16z"/></g></svg>